<?xml version="1.0" standalone="no"?>
<!DOCTYPE svg PUBLIC "-//W3C//DTD SVG 20010904//EN"
 "http://www.w3.org/TR/2001/REC-SVG-20010904/DTD/svg10.dtd">
<svg version="1.0" xmlns="http://www.w3.org/2000/svg"
 width="577.000000pt" height="433.000000pt" viewBox="0 0 577.000000 433.000000"
 preserveAspectRatio="xMidYMid meet">

<g transform="translate(0.000000,433.000000) scale(0.100000,-0.100000)"
fill="#000000" stroke="none">
<path d="M2695 3105 c-229 -46 -402 -139 -566 -304 -139 -140 -232 -302 -276
-480 l-18 -71 -72 0 c-66 0 -73 2 -73 19 0 11 -4 23 -10 26 -7 4 -10 -60 -10
-184 0 -121 4 -191 10 -191 6 0 10 9 10 20 0 19 5 21 73 18 l72 -3 3 -30 c1
-16 10 -59 18 -95 46 -188 136 -345 285 -492 284 -283 683 -379 1074 -257 218
67 451 250 573 449 71 115 142 303 142 375 0 50 8 55 80 55 62 0 68 -2 74 -22
4 -16 8 -20 16 -12 14 14 9 364 -5 364 -5 1 -11 -8 -13 -20 -3 -18 -11 -20
-78 -20 -67 0 -74 2 -74 20 0 33 -68 225 -102 287 -153 281 -408 473 -723 543
-104 23 -311 26 -410 5z m469 -49 c304 -91 535 -286 660 -558 74 -161 91 -240
90 -418 0 -115 -5 -163 -22 -230 -53 -209 -144 -364 -297 -508 -79 -74 -176
-143 -245 -174 -19 -9 -51 -23 -70 -31 -43 -20 -108 -41 -180 -58 -73 -18
-356 -19 -430 -1 -137 33 -332 125 -418 196 -204 168 -332 376 -383 621 -18
88 -15 315 6 395 53 205 124 336 258 477 93 98 182 164 292 217 178 86 278
107 490 102 137 -3 173 -7 249 -30z"/>
<path d="M2780 3064 c-136 -17 -304 -72 -411 -134 -200 -118 -367 -326 -442
-550 -39 -119 -50 -202 -45 -346 8 -194 60 -352 168 -507 152 -219 334 -344
610 -419 102 -28 332 -30 435 -4 219 55 364 135 502 274 194 196 293 430 293
698 0 281 -89 495 -289 694 -190 189 -408 285 -671 294 -63 2 -131 2 -150 0z
m323 -144 c270 -68 509 -277 603 -528 13 -34 24 -67 24 -72 0 -21 -21 -9 -32
18 -65 159 -120 244 -216 338 -109 106 -236 179 -387 219 -91 25 -264 30 -361
12 -124 -24 -294 -95 -342 -143 -7 -8 -16 -14 -20 -14 -15 -1 -123 -110 -169
-171 -48 -63 -116 -191 -129 -243 -6 -24 -34 -38 -34 -17 0 24 71 174 110 231
152 225 365 356 645 394 61 9 233 -5 308 -24z m-595 -356 c25 -29 28 -62 7
-90 -14 -18 -14 -18 -15 11 -1 80 -75 102 -136 41 -41 -41 -43 -68 -8 -103 22
-22 32 -25 67 -20 l42 6 -28 -16 c-55 -29 -117 10 -117 73 0 50 28 93 75 115
48 23 82 17 113 -17z m893 3 c45 -30 66 -85 49 -127 -12 -30 -54 -60 -83 -60
-7 0 -22 7 -33 15 -18 13 -16 14 16 9 42 -7 90 25 90 60 0 45 -49 95 -95 95
-44 0 -68 -22 -69 -64 -1 -19 -4 -35 -8 -35 -10 0 -23 50 -19 75 7 55 92 73
152 32z m-336 -24 c28 -11 70 -32 95 -47 90 -56 184 -166 162 -188 -8 -8 -32
12 -82 65 -103 109 -211 157 -355 157 -124 0 -231 -41 -320 -121 -28 -26 -57
-59 -64 -73 -9 -17 -23 -26 -38 -26 -13 0 -23 3 -23 6 0 16 74 105 115 138 49
40 172 101 220 109 67 11 240 -1 290 -20z m-42 -193 c47 -23 89 -60 70 -60 -6
0 -41 14 -79 31 -60 27 -77 31 -138 27 -48 -2 -85 -10 -114 -26 -23 -12 -53
-22 -65 -22 -22 0 -22 1 3 20 81 64 229 78 323 30z m-237 -88 c11 -7 37 -81
49 -139 11 -54 22 -47 45 30 26 85 44 117 68 117 32 0 44 -17 71 -99 14 -46
31 -82 36 -81 6 2 20 38 32 82 12 44 24 82 26 85 3 2 23 3 45 1 l40 -3 -52
-155 -52 -155 -38 0 -39 0 -33 95 c-36 106 -33 106 -69 -15 -23 -76 -30 -85
-70 -85 l-33 0 -35 113 c-20 61 -42 131 -49 155 -12 40 -26 56 -25 30 1 -44
-3 -48 -48 -48 l-44 0 -3 -122 -3 -123 -37 -3 -38 -3 0 125 0 126 -50 0 -50 0
0 35 0 35 163 3 c89 1 167 3 172 5 6 1 15 -2 21 -6z m598 -4 c12 -18 126 -296
126 -306 0 -9 -12 -12 -37 -10 -30 2 -41 9 -51 31 -13 27 -15 28 -85 25 -66
-3 -72 -5 -75 -25 -2 -14 -12 -25 -25 -27 -32 -6 -67 -3 -67 6 0 12 121 292
133 306 7 9 23 12 45 8 19 -3 35 -6 36 -8z m-1114 -33 l0 -35 -80 0 -80 0 0
-30 0 -29 73 -3 72 -3 3 -32 3 -33 -75 0 -76 0 0 -54 0 -54 -37 -4 c-21 -3
-40 -3 -43 -1 -8 8 -12 202 -5 259 l6 54 120 0 119 0 0 -35z m128 -122 l-3
-158 -40 0 -40 0 -3 158 -3 157 46 0 46 0 -3 -157z m1192 102 c17 -30 35 -55
39 -55 4 0 21 25 36 55 29 54 30 55 72 55 24 0 43 -3 43 -8 0 -4 -11 -24 -25
-44 -14 -20 -25 -40 -25 -43 0 -3 -12 -24 -27 -47 -21 -31 -29 -58 -33 -107
l-5 -66 -35 0 -35 0 -5 60 c-5 58 -41 134 -102 214 -27 35 -23 41 26 41 43 0
45 -1 76 -55z m-1516 -362 c59 -187 185 -355 346 -459 147 -94 282 -135 455
-137 267 -2 493 102 662 303 65 77 140 216 164 303 14 51 44 69 33 20 -51
-224 -222 -441 -436 -553 -102 -53 -180 -78 -308 -96 -93 -13 -118 -13 -210 0
-162 23 -246 54 -380 141 -159 102 -303 295 -354 474 -19 66 -19 61 -3 61 7 0
21 -26 31 -57z m615 28 c42 -40 115 -72 176 -78 68 -7 140 17 205 68 46 37 70
48 70 32 0 -15 -87 -87 -129 -106 -56 -25 -178 -29 -231 -8 -74 30 -176 121
-136 121 8 0 28 -13 45 -29z m141 -4 c11 -4 9 -6 -5 -6 -11 0 -31 9 -45 20
l-25 20 30 -14 c17 -8 37 -17 45 -20z m-345 -33 c15 -26 48 -67 74 -91 151
-145 362 -174 555 -76 55 28 153 121 176 168 17 33 29 45 48 45 25 0 11 -36
-39 -103 -88 -117 -209 -189 -350 -206 -205 -26 -381 60 -504 247 -24 36 -26
45 -14 53 22 14 25 12 54 -37z m495 36 c-8 -5 -22 -10 -30 -10 -13 0 -13 1 0
10 8 5 22 10 30 10 13 0 13 -1 0 -10z m-72 -17 c-10 -2 -28 -2 -40 0 -13 2 -5
4 17 4 22 1 32 -1 23 -4z m-478 -93 c11 -7 8 -10 -16 -10 -35 0 -84 -33 -84
-56 0 -46 60 -104 108 -104 32 0 62 37 62 78 l1 37 14 -25 c21 -37 18 -68 -11
-97 -22 -22 -32 -25 -72 -20 -84 9 -138 99 -101 168 17 33 70 48 99 29z m993
-10 c71 -56 16 -176 -86 -187 -36 -4 -49 -1 -66 16 -22 22 -30 94 -11 106 6 3
10 -4 10 -18 0 -32 36 -77 61 -77 28 0 75 26 93 52 39 56 0 114 -71 106 -31
-4 -33 -3 -17 9 26 19 57 16 87 -7z"/>
<path d="M3320 2123 c-8 -21 -16 -41 -18 -45 -2 -5 15 -8 37 -8 23 0 41 2 41
5 0 11 -35 85 -40 85 -3 0 -12 -17 -20 -37z"/>
</g>
</svg>
